/* XPM */
static char * bhole_xpm[] = {
"50 50 26 1",
" 	c #000000000000",
".	c #FFFFFFFFFFFF",
"X	c #F4F4F4F4F4F4",
"o	c #EAEAEAEAEAEA",
"O	c #E0E0E0E0E0E0",
"+	c #D6D6D6D6D6D6",
"@	c #CCCCCCCCCCCC",
"#	c #C1C1C1C1C1C1",
"$	c #B7B7B7B7B7B7",
"%	c #ADADADADADAD",
"&	c #A3A3A3A3A3A3",
"*	c #999999999999",
"=	c #8E8E8E8E8E8E",
"-	c #848484848484",
";	c #7A7A7A7A7A7A",
":	c #707070707070",
">	c #666666666666",
",	c #5B5B5B5B5B5B",
"<	c #515151515151",
"1	c #474747474747",
"2	c #3D3D3D3D3D3D",
"3	c #333333333333",
"4	c #282828282828",
"5	c #1E1E1E1E1E1E",
"6	c #141414141414",
"7	c #0A0A0A0A0A0A",
"                                                  ",
" ................................................ ",
" ..................XXXXXoooXXXXX................. ",
" ...............XXXoooooOOOoooooXXX.............. ",
" .............XXoooOOOO+++++OOOOoooXX............ ",
" ...........XXooOOO++++@@@@@++++OOOooXX.......... ",
" ..........XooOO+++@@@@#####@@@@+++OOooX......... ",
" .........XooO++@@@####$$$$$####@@@++OooX........ ",
" ........XoOO++@@##$$$%%%%%%%$$$##@@++OOoX....... ",
" .......XoOO+@@##$$%%%&&&&&&&%%%$$##@@+OOoX...... ",
" ......XoOO+@@#$$%%&&&*******&&&%%$$#@@+OOoX..... ",
" .....XoOO+@##$%%&&***=======***&&%%$##@+OOoX.... ",
" ....XooO+@##$%%&**===-------===**&%%$##@+OooX... ",
" ....XoO+@@#$%&&**=---;;;;;;;---=**&&%$#@@+OoX... ",
" ...XoO++@#$%&&*==--;;:::::::;;--==*&&%$#@++OoX.. ",
" ...XoO+@#$%%&*==-;;::>>>>>>>::;;-==*&%%$#@+OoX.. ",
" ..XoO+@@#$%&*==-;::>>,,,,,,,>>::;-==*&%$#@@+OoX. ",
" ..XoO+@#$%&**=-;::>,,<<<<<<<,,>::;-=**&%$#@+OoX. ",
" ..XoO+@#$%&*=-;::>,<<1111111<<,>::;-=*&%$#@+OoX. ",
" .XoO+@#$%&*=--;:>,<<122222221<<,>:;--=*&%$#@+OoX ",
" .XoO+@#$%&*=-;:>,<<12233333221<<,>:;-=*&%$#@+OoX ",
" .XoO+@#$%&*=-;:>,<1233444443321<,>:;-=*&%$#@+OoX ",
" .XoO+@#%&*=-;:>,<122345555543221<,>:;-=*&%#@+OoX ",
" .Xo+@#$%&*=-;:>,<123456666654321<,>:;-=*&%$#@+oX ",
" .oO+@#$%&*=-;:>,<123456777654321<,>:;-=*&%$#@+Oo ",
" .oO+@#$%&*=-;:>,<1234567 7654321<,>:;-=*&%$#@+Oo ",
" .oO+@#$%&*=-;:>,<123456777654321<,>:;-=*&%$#@+Oo ",
" .Xo+@#$%&*=-;:>,<123456666654321<,>:;-=*&%$#@+oX ",
" .XoO+@#%&*=-;:>,<122345555543221<,>:;-=*&%#@+OoX ",
" .XoO+@#$%&*=-;:>,<1233444443321<,>:;-=*&%$#@+OoX ",
" .XoO+@#$%&*=-;:>,<<12233333221<<,>:;-=*&%$#@+OoX ",
" .XoO+@#$%&*=--;:>,<<122222221<<,>:;--=*&%$#@+OoX ",
" ..XoO+@#$%&*=-;::>,<<1111111<<,>::;-=*&%$#@+OoX. ",
" ..XoO+@#$%&**=-;::>,,<<<<<<<,,>::;-=**&%$#@+OoX. ",
" ..XoO+@@#$%&*==-;::>>,,,,,,,>>::;-==*&%$#@@+OoX. ",
" ...XoO+@#$%%&*==-;;::>>>>>>>::;;-==*&%%$#@+OoX.. ",
" ...XoO++@#$%&&*==--;;:::::::;;--==*&&%$#@++OoX.. ",
" ....XoO+@@#$%&&**=---;;;;;;;---=**&&%$#@@+OoX... ",
" ....XooO+@##$%%&**===-------===**&%%$##@+OooX... ",
" .....XoOO+@##$%%&&***=======***&&%%$##@+OOoX.... ",
" ......XoOO+@@#$$%%&&&*******&&&%%$$#@@+OOoX..... ",
" .......XoOO+@@##$$%%%&&&&&&&%%%$$##@@+OOoX...... ",
" ........XoOO++@@##$$$%%%%%%%$$$##@@++OOoX....... ",
" .........XooO++@@@####$$$$$####@@@++OooX........ ",
" ..........XooOO+++@@@@#####@@@@+++OOooX......... ",
" ...........XXooOOO++++@@@@@++++OOOooXX.......... ",
" .............XXoooOOOO+++++OOOOoooXX............ ",
" ...............XXXoooooOOOoooooXXX.............. ",
" ..................XXXXXoooXXXXX................. ",
"                                                  "};
