/* XPM */
static char * genplan_xpm[] = {
"50 50 6 1",
" 	c #000000000000",
".	c #FFFFFFFFFFFF",
"X	c #FFFF00000000",
"o	c #808000000000",
"O	c #808080808080",
"+	c #C0C0C0C0C0C0",
"                                                  ",
"                                                  ",
"                                                  ",
"                                                  ",
"    .                                             ",
"                                                  ",
"             .                                    ",
"                                                  ",
"                                                  ",
"                                                  ",
"                                                  ",
"                                                  ",
"                                                  ",
"                                                  ",
"                     XXXXXXXX                     ",
"                   XXXXXXXXXXXX      .            ",
"                  XXoXXXXXXXXXXX                  ",
"                 ooXXXXXXXXXXXXXX                 ",
"                ooXoXXXXXXXXXXXXXX                ",
"               ooXoXXXXXXXXXXXXXXXX               ",
"               ooXXXXXXXXXXXXXXXXXX               ",
"              ooooXoXXXXXXXXXXXXXXXX              ",
"              oooXXXXXXXXXXXXXXXXXXX              ",
"              oooooXoXXXXXXXXXXXXXXX              ",
"              ooooXXXXXXXXXXXXXXXXXX              ",
"              ooooXoXoXXXXXXXXXXXXXX              ",
"              oooooXXXXXXXXXXXXXXXXX              ",
"              oooooXoXoXXXXXXXXXXXXX              ",
"              ooooooXXXXXXXXXXXXXXXX              ",
"               oooooXoXXoXXXXXXXXXX               ",
"               ooooooXXXXXoXXXXXXXX    OOOO       ",
"                ooooooXoXXXXoXXXXX    O    O      ",
"                 ooooooXXoXXXXoXX    O      O     ",
"                  oooooooXXoXoXo    +   ++   O    ",
"         .         oooooooooooo     +  O  +  O    ",
"                     oooooooo       +++O  +  O    ",
"                                         O   O    ",
"                                        O   O     ",
"                                       +   O      ",
"                                       +  O       ",
"                                       +  O       ",
"                                       ++OO       ",
"                               .                  ",
"                                       OOOO       ",
"                                       +  O       ",
"                                       +++O       ",
"                                                X ",
"                                                  ",
"                                                  ",
"                                                  "};
