/* XPM */
static char * planh_xpm[] = {
"50 50 16 1",
" 	c #000000000000",
".	c #FFFFFFFFFFFF",
"X	c #FFFFFFFF0000",
"o	c #C0C0C0C0C0C0",
"O	c #0000FFFFFFFF",
"+	c #808080808080",
"@	c #000080808080",
"#	c #00000000FFFF",
"$	c #000080800000",
"%	c #0000FFFF0000",
"&	c #000000008080",
"*	c #0000FFFF8080",
"=	c #FFFF00000000",
"-	c #000025250F0F",
";	c #000082824949",
":	c #000040404040",
"                                                  ",
"                                                  ",
"                                                  ",
"                                                  ",
"                                                  ",
"      .                                           ",
"                                                  ",
"                                                  ",
"                 X                                ",
"                                                  ",
"                  ooo   OOO              .        ",
"                 +ooo OOOOOO                      ",
"                 ++oooOOOOOO                      ",
"                  +ooo OO                         ",
"                @@++ooo...###                     ",
"             @@@@@ +ooo######## ..                ",
"             @@@@@@++#######.#..  .               ",
"              @@@$$.#########.###..               ",
"                o$.$.######..#..##                ",
"              o$.%&##########*o#..#.              ",
"            =  -$.##.#####.#..#%%##               ",
"              +$$&.&#####.##.*;.;%##              ",
"              ++&##########*#;;.*+##              ",
"              $-&&&#&#####*o#%+o;*##         .    ",
"              $$&&###########%:o%%##              ",
"              +&&&#&#&######o;######              ",
"              +&&&&#########%#######              ",
"              &&&&&#&#&#############              ",
"              &&&&&&################              ",
"               &&&&&#&##&.;%#######               ",
"               &&&&&&#.#o+&%#######               ",
"                &&o&&.#&#.%+&#####                ",
"              oo o&oo&&.#&####&##  o+++   o+++    ",
"                  &&&&.&&#.&#&#& . o  +   o  +    ",
"               oo  &o&&&&&&&oo&    o  +   o  +    ",
"                  o  &&&ooooo      o  +   o  +    ",
"                                   o  +   o  +    ",
"                                   o  ++++o  +    ",
"                                   o         +    ",
"                                   o         +    ",
"                                   o  ooooo  +    ",
"                                   o  +   o  +    ",
"                                   o  +   o  +    ",
"                                   o  +   o  +    ",
"                                  .o  +   o  +    ",
"      .                            ooo+   ooo+    ",
"                                                  ",
"                                                  ",
"                                                  ",
"                                                  "};
