/* XPM */
static char * plann_xpm[] = {
"50 50 10 1",
" 	c #000000000000",
".	c #FFFFFFFFFFFF",
"X	c #FFFFFFFF0000",
"o	c #808080804040",
"O	c #FFFF80804040",
"+	c #FFFF00000000",
"@	c #808040400000",
"#	c #808000000000",
"$	c #808080808080",
"%	c #C0C0C0C0C0C0",
"                                                  ",
"                                                  ",
"                                                  ",
"                        .                         ",
"                                                  ",
"                                                  ",
"                                                  ",
"          X                                       ",
"                                                  ",
"                                                  ",
"                                                  ",
"                                                  ",
"                                                  ",
"                                                  ",
"                     oOOoOOOO                     ",
"                   OOO+OO++O+O+                   ",
"                  OO@+OOoOOoO+++                  ",
"                 @@OOOOOOO+OOo+OO                 ",
"                @#O@OOoOOO+O++O++O                ",
"               #@O@o+OO+O+O+OOOoOO+               ",
"               @#OOOOOOOOoOOoO+O++O               ",
"              @@@#O@O+OOOOOOO+++OO+O              ",
"              ##@OOOOOOO+O+OOoO+o+O+       X      ",
"              @@@@@O#OooOOOO+oOOOO+O              ",
"              @#@@O+OOOOOOOOOoO+O+Oo              ",
"              #@#@O@O@OOOoOOOOOOO+OO              ",
"              @#@@@OOOOO+OO+O+O+oO+O              ",
"              @#@#@o#O@OOOOO+OOOoOO+              ",
"              @@##@@OO+OOOOoOOoOO+OO              ",
"               #@@@@O@Oo@OOOO+OOOOO               ",
"               @@##@@OOOOO@OOOOOOoO               ",
"                @#@@@#O@O+OO@OO+OO                ",
"                 @@@#@@OO@OO+O@OO    $$$$  $$$    ",
"                  @#@@@@@OO@o@O@     %   $ % $    ",
"                   @@#@#@#@@@@@      %   $ % $    ",
"                     @@@@@@#@        % %  $% $    ",
"                                     % %  $% $    ",
"                                     % $%  % $    ",
"         ..                          % $%    $    ",
"                                     % $ %   $    ",
"                                     % $ %   $    ",
"                                     % $ %   $    ",
"                                     % $  %  $    ",
"                                     % $  %  $    ",
"                                     % $   % $    ",
"                                     %%$   %%$    ",
"                                                . ",
"                                                  ",
"                                                  ",
"                                                  "};
