/* XPM */
static char * plana_xpm[] = {
"50 50 8 1",
" 	c #000000000000",
".	c #FFFFFFFFFFFF",
"X	c #808080804040",
"o	c #FFFF80804040",
"O	c #808040400000",
"+	c #C0C0C0C0C0C0",
"@	c #808080808080",
"#	c #FFFF00000000",
"                                                  ",
"                                                  ",
"                                                  ",
"                                                  ",
"                                                  ",
"      .                                           ",
"                                                  ",
"                                                  ",
"                                                  ",
"                                                  ",
"                                         .        ",
"                                                  ",
"                                                  ",
"                                                  ",
"                     XooXoooo                     ",
"                   oooooooooooo                   ",
"                  ooOoooXooXoooo                  ",
"                 OOooooooooooXooo                 ",
"                OOoOooXooooooooooo                ",
"               OOoOXoooooooooooXooo               ",
"               OOooooooooXooXoooooo               ",
"              OOOOoOoooooooooooooooo              ",
"              OOOooooooooooooXooXooo              ",
"              OOOOOoOoXXoooooXoooooo         .    ",
"              OOOOoooooooooooXoooooX              ",
"              OOOOoOoOoooXoooooooooo              ",
"              OOOOOoooooooooooooXooo              ",
"              OOOOOXOoOoooooooooXooo              ",
"              OOOOOOoooooooXooXooooo              ",
"               OOOOOoOoXOoooooooooo               ",
"        .      OOOOOOoooooOooooooXo               ",
"                OOOOOOoOooooOooooo                ",
"                 OOOOOOooOooooOoo     +@@         ",
"                  OOOOOOOooOXOoO      + @         ",
"                   OOOOOOOOOOOO      +   @        ",
"                     OOOOOOOO        +   @        ",
"                                    +  +  @       ",
"                                    + @ + @       ",
"                                    + @@+ @       ",
"                                   +       @      ",
"                                   +  @@+  @      ",
"                                   +  @ +  @      ",
"                                  +  @   +  @     ",
"                                  +  @   +  @     ",
"             #                   +. @     +  @    ",
"      .                          +++@     +++@    ",
"                                                  ",
"                                                  ",
"                                                  ",
"                                                  "};
