/* XPM */
static char * planc_xpm[] = {
"50 50 12 1",
" 	c #000000000000",
".	c #FFFFFFFF0000",
"X	c #808000000000",
"o	c #808080804040",
"O	c #FFFFFFFF8080",
"+	c #FFFF80804040",
"@	c #808040400000",
"#	c #A2A279792929",
"$	c #FFFF00000000",
"%	c #FFFFFFFFFFFF",
"&	c #808080808080",
"*	c #C0C0C0C0C0C0",
"                                                  ",
"                                                  ",
"                                                  ",
"                                                  ",
"   .                                              ",
"                                                  ",
"                                                  ",
"                                                  ",
"                                                  ",
"                                                  ",
"                                                  ",
"                                      .           ",
"                         Xo    X                  ",
"                    X X o  X Xo                   ",
"                     OOOOOOOO  X                  ",
"                 X OOO+@++++OOO oX                ",
"                  OOoOXX#@O+++OO  oX              ",
"               X ooOOO@#.OOOO++XO X               ",
"                ooOoOOOO+++++++OOX X              ",
"               ooOoOO+++OOOOOOOOOOO               ",
"               ooOOO++OOOOO+OO+O++OOX             ",
"             Xoo@oOoOOOOO+OOO++++OOO X            ",
"              o@oOOOO#O+O++O+OOOOO+XX             ",
"              oooooOoO++OOO++++++OOO              ",
"              oo@@O++++..+OOOO.#++OOX             ",
"             Xoo@oOoOoO+$@X@X+#.#@+Oo             ",
"              @@@ooOOO$@@X#@$+++OOOO X            ",
"              ooo@oOo$oX.#X+OXOXOOOO              ",
"              oooooo@++X#.#@X+X+++OO o            ",
"               o@@o@@@X@XXX@XOXOO++oX             ",
"               ooo@@oO$X@@o@O$OO++OX              ",
"     %        X ooooooOo$X$OoO+++O X              ",
"                 oo@@ooOOoOOO++OOOX   &&&&        ",
"                  oooooooOOoOoOo %o  &    &       ",
"                   o@@o@@oooooo     *  **  &      ",
"                   X oooooooo  X    * &  **&      ",
"                         X   X     *  &           ",
"                                   * &            ",
"                                   * &            ",
"                                   * &            ",
"                                   *  &           ",
"                                    * &  &&&      ",
"                                    *  &&  &      ",
"                                     *    *       ",
"                                      ****        ",
"                        %                         ",
"                                                  ",
"                                                  ",
"                                                  ",
"                                                  "};
