/* XPM */
static char * planq_xpm[] = {
"50 50 11 1",
" 	c #000000000000",
".	c #FFFFFFFFFFFF",
"X	c #808080804040",
"o	c #FFFF80804040",
"O	c #FFFF00008080",
"+	c #FFFF00000000",
"@	c #808040400000",
"#	c #808000000000",
"$	c #808080808080",
"%	c #C0C0C0C0C0C0",
"&	c #FFFFFFFF0000",
"                                                  ",
"                                                  ",
"                                                  ",
"                                                  ",
"                                                  ",
"                             ..                   ",
"                                                  ",
"                                                  ",
"                                                  ",
"                                                  ",
"                                                  ",
"                                                  ",
"                                                  ",
"                                                  ",
"                     XooXoO+o                     ",
"                   ooo+oo++o+o+                   ",
"                  O+@+oOXooXO+++                  ",
"                 @@o+ooOoO+o+X+o+      .          ",
"                @#o@ooXo+o+O++o++o                ",
"               #@+@X++o+o+o+oo+Xo++               ",
"               @#oOoOoo+OXooXO+o++o               ",
"      .       @@@#o@o+OoooOo++++oO+o              ",
"              ##@o+ooOoo+o+ooXo+X+o+              ",
"              @@#@@o#oXXooOo+Xo+Oo+o              ",
"              @#@#o+o+o+ooo+oXo+++OX              ",
"              #@#@o@o@oooXooOo+oo++O              ",
"              @#@@@ooOoo+oo+o+o+Xo++              ",
"              @#@#@X#o@+Oooo+o+oXOo+              ",
"              @@##@@oo+oooOXooXoo+oO              ",
"               #@@@#o@oX@OooO+oo+oo               ",
"               @###@@ooo+o@ooOoooXo   $$$$        ",
"                @#@#@#+@o+oO@oo+oo   $    $       ",
"                 @@@#@@oo@oo+o@oo   %      $      ",
"                  @##@@@@oo@X@o@    %  %%  $      ",
"        &          @@#@#@#@@@@@    %  $  %  $     ",
"                     @#@#@@#@      % $    % $     ",
"                                   % $    % $     ",
"                                   % $    % $     ",
"                                   % $    % $     ",
"                                   % $   $% $     ",
"                                   %  $ %   $     ",
"                                    %  $$   $     ",
"                                    %        $    ",
"                                     %    %% $    ",
"                                      %%%%  %     ",
"                                                  ",
"                                &                 ",
"                                                  ",
"                                                  ",
"                                                  "};
