/* XPM */
static char * planm_xpm[] = {
"50 50 13 1",
" 	c #000000000000",
".	c #FFFFFFFF0000",
"X	c #FFFFFFFFFFFF",
"o	c #00000000FFFF",
"O	c #C0C0C0C0C0C0",
"+	c #0000FFFF0000",
"@	c #000000008080",
"#	c #000080800000",
"$	c #0000FFFF8080",
"%	c #FFFF00000000",
"&	c #000025250F0F",
"*	c #000082824949",
"=	c #808080808080",
"                                                  ",
"                                                  ",
"                                                  ",
"                                                  ",
"                                                  ",
"                                                  ",
"                                                  ",
"                                                  ",
"                                                  ",
"                                                  ",
"          .                                       ",
"                                                  ",
"                                                  ",
"                  X                               ",
"                     XXXXXooo            X        ",
"                O X++Xooooooooo X                 ",
"                  ++@oooooooXoXX                  ",
"              O O##XoooooooooXoooXX               ",
"                O#X#XooooooXXoXXoo                ",
"              O#X+@oooooooooo$+oXXoX              ",
"            %  &#XooXoooooXoXXo++oo               ",
"              ###@X@oooooXooX$*X*+oo              ",
"              &#@oooooooooo$o**X$+oo              ",
"              #&@@@o@ooooo$$o+*$*$oo              ",
"              ##@@ooooooooooo+$+++oo              ",
"              #@@@o@o@oooooo+*oooooo              ",
"              #@@@@ooooooooo+ooooooo              ",
"              @@@@@o@o@ooooooooooooo              ",
"              @@@@@@oooooooooooooooo              ",
"               @@@@@o@oo@X*+ooooooo               ",
"               @@@@@@oXo+$@+ooooooo               ",
"     X          @@O@@Xo@oX+$@ooooo                ",
"              OO O@OO@@Xo@oooo@oo  O==     ===    ",
"                  @@@@X@@oX@o@o@   O =     O =    ",
"               OO  @O@@@@@@@OO@    O  =   O  =    ",
"                  O  @@@OOOOO      O  =   O  =    ",
"                                   O  =   O  =    ",
"                                   O   = O   =    ",
"                                   O   = O   =    ",
"                                   O   = O   =    ",
"                             X     O    O    =    ",
"                                   O O     O =    ",
"                                   O =O   =O =    ",
"                                   O =O   =O =    ",
"         X                         O = O = O =    ",
"                                   OO=  O  OO=    ",
"                                                  ",
"                                                  ",
"                                                  ",
"                                                  "};
