/* XPM */
static char *plano_xpm[] = {
/* width height num_colors chars_per_pixel */
"    50    50       10            1",
/* colors */
". c #000000",
"# c #808080",
"a c #800000",
"b c #808040",
"c c #804000",
"d c #ffffff",
"e c #c0c0c0",
"f c #ff0000",
"g c #ffff00",
"h c #ff8040",
/* pixels */
"..................................................",
".............................................d....",
"..................................................",
".......................d..........................",
"..................................................",
"......d...........................................",
"..................................................",
"..................................................",
".................g................................",
"................................d.................",
".........................................d........",
".........d........................................",
"..................................................",
"..................d............................f..",
".....................bhhbhhhh.....................",
"...................hhhfhhffhfhf...................",
"..................hhcfhhbhhbhfff..................",
".................cchhhhhhhfhhbfhh.................",
"..d.............cahchhbhhhfhffhffh................",
"...............achcbfhhfhfhfhhhbhhf...............",
"............f..cahhhhhhhhbhhbhfhffh...............",
"..............cccahchfhhhhhhhfffhhfh..............",
"..............aachhhhhhhfhfhhbhfbfhf..............",
"..............ccccchahbbhhhhfbhhhhfh.........d....",
"..............cacchfhhhhhhhhhbhfhfhb..............",
"..............acachchchhhbhhhhhhhfhh..............",
"..............caccchhhhhfhhfhfhfbhfh..............",
"..............cacacbahchhhhhfhhhbhhf..............",
"..............ccaacchhfhhhhbhhbhhfhh..............",
"...............acccchchbchhhhfhhhhh...............",
"........d......ccaacchhhhhchhhhhhbh...####........",
"................cacccahchfhhchhfhh...#....#.......",
".................cccacchhchhfhchh...e......#......",
"..................caccccchhcbchc.d..e..ee..#......",
"...................ccacacaccccc....e..#..e..#.....",
".....................ccccccac......e.#....e.#.....",
"...................................e.#....e.#.....",
"...................................e.#....e.#.....",
".............d.....................e.#....e.#.....",
"...................................e.#....e.#.....",
"........................d..........e..#..#..#.....",
"....................................e..##..#......",
"....................................e......#......",
".....................................e....e.......",
".............f....................d...eeee........",
"......d...........................................",
"..................................................",
"..................................................",
"..................................................",
".................................................."
};
