/* XPM */
static char * planb_xpm[] = {
"50 50 6 1",
" 	c #000000000000",
".	c #FFFFFFFFFFFF",
"X	c #00000000FFFF",
"o	c #000000008080",
"O	c #C0C0C0C0C0C0",
"+	c #808080808080",
"                                                  ",
"                                             .    ",
"                                                  ",
"                       .                          ",
"                                                  ",
"                                                  ",
"                                                  ",
"                                                  ",
"                                                  ",
"                                                  ",
"                                                  ",
"         .                                        ",
"                                                  ",
"                                                  ",
"                 .   XXXXXXXX                     ",
"                  .XXXXXXXXXXXX                   ",
"                . X.oXXXXXXXXXXX                  ",
"               . .oXXXXXXXXXXXXXX                 ",
"                .oX...XXXXXXXXXXXX                ",
"               oo..XXX.XXXXXXXXXXX..              ",
"               ooX.X.XX.XXXXXXXXX.X .             ",
"              ooooX.X.XXXXXXXX.X.X..              ",
"              oooXXXXXXXXXX.X.X.X.XX.             ",
"              oooooXoXXXXXXXXXX....X              ",
"              ooooXXXXXXXXXXX..XXXXX              ",
"              ooooXoXoXXXXXXXXXXXXXX              ",
"              oooooXXXXXXXXXXXXXXXXX              ",
"              .ooooXoXoXXXXXXXXXXXXX              ",
"              o..oooXXXXXXXXXXXXXXXX              ",
"               ooo.oXoXXoXXXXXXXXXX               ",
"        .      .o..o.X.XXXoXXXXXXXX               ",
"                o.o.ooXoX.XXoXXXXX                ",
"                 o.o..o.XoXXXXoXX    O+++++       ",
"                  oooooo.XXoXoXo .   O     +      ",
"                   oooooooooooo      O OOO  +     ",
"                     oooooooo        O + O  +     ",
"                                     O + O  +     ",
"                                     O ++  +      ",
"                                     O    +       ",
"                                     O +O  +      ",
"                        .            O + O  +     ",
"                                     O + O  +     ",
"                                     O +++  +     ",
"                                     O     +      ",
"                                     OOOOOO       ",
"      .                                           ",
"                                                  ",
"                                                  ",
"                                                  ",
"                                                  "};
