/* XPM */
static char * pland_xpm[] = {
"50 50 14 1",
" 	c #000000000000",
".	c #FFFFFFFFFFFF",
"X	c #FFFFFFFF0000",
"o	c #00000000FFFF",
"O	c #808040400000",
"+	c #0000FFFF0000",
"@	c #000000008080",
"#	c #FFFF80804040",
"$	c #000080800000",
"%	c #0000FFFF8080",
"&	c #000025250F0F",
"*	c #000082824949",
"=	c #808080808080",
"-	c #C0C0C0C0C0C0",
"                                                  ",
"                                                  ",
"                                                  ",
"                                                  ",
"                                            .     ",
"                                                  ",
"                                                  ",
"                                                  ",
"            X                                     ",
"                                                  ",
"                                                  ",
"                                                  ",
"                                                  ",
"                                                  ",
"                     .....ooo                     ",
"                O O++.ooooooooo                   ",
"                  ++@ooooooo#o##                  ",
"              O O$$#ooooooooo#ooo#                ",
"                O$O$#oooooo##o##oo                ",
"              O$O+@oooooooooo%+o##o               ",
"               &$Ooo#ooooo#o##o++oo               ",
"      .       $$$@#@ooooo#oo#%*#*+oo              ",
"              &$@oooooooooo%o**#%+oo              ",
"              $&@@@o@ooooo%%o+*%*%oo              ",
"              $$@@ooooooooooo+%+++oo              ",
"              $@@@o@o@oooooo+*oooooo              ",
"              $@@@@ooooooooo+ooooooo              ",
"              @@@@@o@o@ooooooooooooo           .  ",
"              @@@@@@oooooooooooooooo              ",
"               @@@@@o@oo@#*+ooooooo               ",
"               @@@@@@o#o+%@+ooooooo               ",
"                @@O@@Oo@o#+%@ooooo   =====        ",
"              OO O@OO@@#o@oooo@oo    -    =       ",
"                  @@@@O@@o#@o@o@     -     =      ",
"               OO  @O@@@@@@@--@      - =-  =      ",
"                  O  @@@-----        - = -  =     ",
"                                     - = -  =     ",
"                                     - = -  =     ",
"                                     - = -  =     ",
"                                     - = -  =     ",
"                                     - = -  =     ",
"                                     - ==  =      ",
"             .                       -     =      ",
"                                     -    -       ",
"                                     -----        ",
"                                                  ",
"                                                  ",
"                                                  ",
"                                                  ",
"                                                  "};
