#define smimplogo_width 52
#define smimplogo_height 66
static unsigned char smimplogo_bits[] = {
  0x00, 0x00, 0x00, 0x00, 0x00, 0x00, 0x00, 0x00, 0x00, 0x00, 0x00, 0x00,
  0x00, 0x00, 0x00, 0x00, 0x00, 0x00, 0x00, 0x00, 0x00, 0x00, 0x00, 0x00,
  0x00, 0x00, 0x00, 0x00, 0x00, 0x00, 0x00, 0x00, 0x00, 0x00, 0x00, 0x00,
  0x00, 0x00, 0x00, 0x00, 0x00, 0x00, 0x00, 0x00, 0x00, 0x00, 0x00, 0x00,
  0x00, 0x00, 0x00, 0x00, 0x00, 0x00, 0x00, 0x00, 0x00, 0x00, 0x00, 0x00,
  0x00, 0x00, 0x00, 0x00, 0x00, 0x00, 0x00, 0x00, 0x00, 0x00, 0x00, 0x00,
  0x00, 0x00, 0x00, 0x00, 0x00, 0x00, 0x00, 0x00, 0x00, 0x00, 0x00, 0x00,
  0x00, 0x00, 0x00, 0x00, 0x00, 0x00, 0x00, 0x00, 0x00, 0x80, 0x3f, 0x00,
  0x00, 0x00, 0x00, 0x00, 0xe0, 0xff, 0x00, 0x00, 0x00, 0x00, 0x00, 0xf0,
  0xff, 0x01, 0x00, 0x00, 0x00, 0x00, 0xf8, 0xff, 0x03, 0x00, 0x00, 0x00,
  0x00, 0xfc, 0xf1, 0x07, 0x00, 0x00, 0x00, 0x00, 0xfe, 0xe0, 0x0f, 0x00,
  0x00, 0x00, 0x00, 0x7f, 0xc0, 0x1f, 0x00, 0x00, 0x00, 0x00, 0x7f, 0xc0,
  0x1f, 0x00, 0x00, 0x00, 0x80, 0xff, 0xe0, 0x3f, 0x00, 0x00, 0x00, 0x80,
  0xff, 0xf1, 0x3f, 0x00, 0x00, 0x00, 0x80, 0xff, 0xff, 0x3f, 0x00, 0x00,
  0x00, 0xc0, 0x7f, 0xc0, 0x7f, 0x00, 0x00, 0x00, 0xc0, 0x7f, 0x00, 0x7f,
  0x00, 0x00, 0x00, 0xc0, 0x7f, 0x00, 0x7e, 0x00, 0x00, 0x00, 0xc0, 0x7f,
  0xf0, 0x7f, 0x00, 0x00, 0x00, 0xe0, 0x7f, 0xf0, 0xff, 0x00, 0x00, 0x00,
  0xe0, 0x7f, 0xf0, 0xff, 0x00, 0x00, 0x00, 0xe0, 0x7f, 0xf0, 0xff, 0x00,
  0x00, 0x00, 0xe0, 0x7f, 0xf0, 0xff, 0x00, 0x00, 0x00, 0xe0, 0x7f, 0xf0,
  0xf9, 0x00, 0x00, 0x00, 0xe0, 0x7f, 0x30, 0xe0, 0x00, 0x00, 0x00, 0xe0,
  0x7f, 0x80, 0xe7, 0x00, 0x00, 0x00, 0xe0, 0x3f, 0xe8, 0xe3, 0x00, 0x00,
  0x00, 0xe0, 0x0f, 0x86, 0xf1, 0x00, 0x00, 0x00, 0xe0, 0x43, 0x02, 0xf9,
  0x00, 0x00, 0x00, 0xe0, 0x7d, 0x06, 0xfd, 0x00, 0x00, 0x00, 0xc0, 0x79,
  0x02, 0x7f, 0x00, 0x00, 0x00, 0xc0, 0x03, 0x84, 0x7f, 0x00, 0x00, 0x00,
  0xc0, 0x7f, 0xf8, 0x7f, 0x00, 0x00, 0x00, 0xc0, 0x7f, 0xf0, 0x7f, 0x00,
  0x00, 0x00, 0x80, 0x7f, 0xf0, 0x3f, 0x00, 0x00, 0x00, 0x80, 0x7f, 0xf0,
  0x3f, 0x00, 0x00, 0x00, 0x80, 0x7f, 0xf0, 0x3f, 0x00, 0x00, 0x00, 0x00,
  0x7f, 0xf0, 0x1f, 0x00, 0x00, 0x00, 0x00, 0x7f, 0xf0, 0x1f, 0x00, 0x00,
  0x00, 0x00, 0xfe, 0xf0, 0x0f, 0x00, 0x00, 0x00, 0x00, 0xfc, 0xf3, 0x07,
  0x00, 0x00, 0x00, 0x00, 0xf8, 0xff, 0x03, 0x00, 0x00, 0x00, 0x00, 0xf0,
  0xff, 0x01, 0x00, 0x00, 0x00, 0x00, 0xe0, 0xff, 0x00, 0x00, 0x00, 0x00,
  0x00, 0xc0, 0x3f, 0x00, 0x00, 0x00, 0x00, 0x00, 0x00, 0x00, 0x00, 0x00,
  0x00, 0x00, 0x00, 0x00, 0x00, 0x00, 0x00, 0x00, 0x00, 0x00, 0x00, 0x00,
  0x00, 0x00, 0x00, 0x00, 0x00, 0x00, 0x00, 0x00, 0x00, 0x00, 0x00, 0x00,
  0x00, 0x00, 0x00, 0x00, 0x00, 0x00, 0x00, 0x00, 0x00, 0x00, 0x00, 0x00,
  0x00, 0x00, 0x00, 0x00, 0x00, 0x00, 0x00, 0x00, 0x00, 0x00, 0x00, 0x00,
  0x00, 0x00, 0x00, 0x00, 0x00, 0x00, 0x00, 0x00, 0x00, 0x00, 0x00, 0x00,
  0x00, 0x00, 0x00, 0x00, 0x00, 0x00, 0x00, 0x00, 0x00, 0x00, 0x00, 0x00,
  0x00, 0x00, 0x00, 0x00, 0x00, 0x00, };
