/* XPM */
static char *smimplogo[] = {
/* width height num_colors chars_per_pixel */
"    52    66      248            2",
/* colors */
".. c #080808",
".# c #101010",
".a c #181818",
".b c #212121",
".c c #292929",
".d c #313131",
".e c #393939",
".f c #424242",
".g c #5a5a5a",
".h c #636363",
".i c #6b6b6b",
".j c #737373",
".k c #7b7b7b",
".l c #848484",
".m c #8c8c8c",
".n c #949494",
".o c #a5a5a5",
".p c #c6c6c6",
".q c #efefef",
".r c #ded6d6",
".s c #bdb5b5",
".t c #b5adad",
".u c #e7d6d6",
".v c #ffdede",
".w c #efcece",
".x c #520000",
".y c #c6bdb5",
".z c #a59c94",
".A c #291808",
".B c #d6c6b5",
".C c #5a524a",
".D c #e7ceb5",
".E c #7b6b5a",
".F c #181008",
".G c #312110",
".H c #422910",
".I c #ffdeb5",
".J c #ffd6a5",
".K c #6b4a21",
".L c #ad9473",
".M c #e7bd84",
".N c #7b6342",
".O c #d6ad73",
".P c #4a3921",
".Q c #ffdead",
".R c #efce9c",
".S c #bd9c6b",
".T c #a58452",
".U c #f7c67b",
".V c #423118",
".W c #b5a58c",
".X c #efd6ad",
".Y c #ad946b",
".Z c #f7ce8c",
".0 c #5a4a31",
".1 c #deb573",
".2 c #f7c673",
".3 c #efb552",
".4 c #634a21",
".5 c #392910",
".6 c #a59c8c",
".7 c #ffdea5",
".8 c #f7d69c",
".9 c #debd84",
"#. c #efc67b",
"## c #ad8c52",
"#a c #7b6339",
"#b c #d6ad63",
"#c c #9c7b42",
"#d c #c69c52",
"#e c #efbd63",
"#f c #bd944a",
"#g c #8c6b31",
"#h c #846329",
"#i c #5a4218",
"#j c #211808",
"#k c #bdb5a5",
"#l c #d6c6a5",
"#m c #bdad8c",
"#n c #f7dead",
"#o c #9c8c6b",
"#p c #dec694",
"#q c #d6bd8c",
"#r c #8c7b5a",
"#s c #847352",
"#t c #bda573",
"#u c #cead6b",
"#v c #ffd684",
"#w c #c6a563",
"#x c #efc673",
"#y c #bd9c5a",
"#z c #8c7342",
"#A c #e7bd6b",
"#B c #deb563",
"#C c #ad8c4a",
"#D c #d6ad5a",
"#E c #524221",
"#F c #cea552",
"#G c #c69c4a",
"#H c #9c7b39",
"#I c #e7b552",
"#J c #bd9442",
"#K c #947331",
"#L c #b58c39",
"#M c #6b5221",
"#N c #f7bd4a",
"#O c #8c6b29",
"#P c #846321",
"#Q c #634a18",
"#R c #b5ad9c",
"#S c #6b6352",
"#T c #d6bd84",
"#U c #ceb57b",
"#V c #b59c63",
"#W c #8c7339",
"#X c #f7c65a",
"#Y c #cea54a",
"#Z c #a58439",
"#0 c #efbd52",
"#1 c #e7b54a",
"#2 c #735a21",
"#3 c #b58c31",
"#4 c #dead39",
"#5 c #ad8429",
"#6 c #ce9c31",
"#7 c #d6a531",
"#8 c #6b5218",
"#9 c #decea5",
"a. c #cebd94",
"a# c #c6b58c",
"aa c #6b5a31",
"ab c #bd9c4a",
"ac c #9c7b29",
"ad c #bd9431",
"ae c #c69c31",
"af c #e7b539",
"ag c #c6bda5",
"ah c #c6b584",
"ai c #8c7b4a",
"aj c #a58429",
"ak c #bdad7b",
"al c #312910",
"am c #8c8463",
"an c #393110",
"ao c #c6c6bd",
"ap c #b5b5a5",
"aq c #181808",
"ar c #293121",
"as c #c6cece",
"at c #949c9c",
"au c #737b7b",
"av c #636b6b",
"aw c #525a5a",
"ax c #4a5252",
"ay c #424a4a",
"az c #313939",
"aA c #293131",
"aB c #21424a",
"aC c #184a5a",
"aD c #396373",
"aE c #39738c",
"aF c #4a9cbd",
"aG c #29637b",
"aH c #217394",
"aI c #182931",
"aJ c #294a5a",
"aK c #318cb5",
"aL c #082939",
"aM c #106b94",
"aN c #107bad",
"aO c #085273",
"aP c #0873a5",
"aQ c #002131",
"aR c #003952",
"aS c #004a6b",
"aT c #006b9c",
"aU c #5a7b8c",
"aV c #5a8ca5",
"aW c #4a7b94",
"aX c #295a73",
"aY c #4294bd",
"aZ c #103142",
"a0 c #2184b5",
"a1 c #001018",
"a2 c #004263",
"a3 c #006ba5",
"a4 c #0073ad",
"a5 c #529cc6",
"a6 c #428cb5",
"a7 c #215a7b",
"a8 c #00395a",
"a9 c #004a73",
"b. c #005a8c",
"b# c #426b84",
"ba c #31739c",
"bb c #002942",
"bc c #001829",
"bd c #182129",
"be c #000810",
"bf c #cec6ce",
"bg c #efced6",
"bh c #f794ad",
"bi c #420010",
"bj c #f7adbd",
"bk c #efa5b5",
"bl c #f78ca5",
"bm c #ef5a7b",
"bn c #efc6ce",
"bo c #cea5ad",
"bp c #946b73",
"bq c #f77b94",
"br c #ef738c",
"bs c #e76b84",
"bt c #e74263",
"bu c #e7395a",
"bv c #e71842",
"bw c #de0831",
"bx c #290008",
"by c #ce9ca5",
"bz c #f76b84",
"bA c #e7637b",
"bB c #e7526b",
"bC c #e73152",
"bD c #de294a",
"bE c #6b1021",
"bF c #e72142",
"bG c #de1839",
"bH c #ef0831",
"bI c #5a0010",
"bJ c #c60021",
"bK c #de0029",
"bL c #ffced6",
"bM c #e7b5bd",
"bN c #f7bdc6",
"bO c #c6949c",
"bP c #bd8c94",
"bQ c #de3952",
"bR c #de1031",
"bS c #6b0010",
"bT c #d60021",
"bU c #dea5ad",
"bV c #ad0018",
"bW c #a50010",
"bX c #730008",
"bY c #840008",
"bZ c #8c0008",
"b0 c #000000",
"b1 c #c0c0c0",
/* pixels */
"b1b1b1b1b1b1b1b1b1b1b1b1b1b1b1b1b1b1b1b1b1b1b1b1b1b1#sb1b1b1b1b1b1b1b1b1b1b1b1b1b1b1b1b1b1b1b1b1b1b1b1b1",
"b1b1b1b1b1b1b1b1b1b1b1b1b1b1b1b1b1b1b1b1b1b1b1b1b1#n.N.Vb1b1b1b1b1b1b1b1b1b1b1b1b1b1b1b1b1b1b1b1b1b1b1b1",
"b1b1b1b1b1b1b1b1b1b1b1b1b1b1b1b1b1b1b1b1b1b1b1b1#n.J.N.V.5b1b1b1b1b1b1b1b1b1b1b1b1b1b1b1b1b1b1b1b1b1b1b1",
"b1b1b1b1b1b1b1b1b1b1b1b1b1b1b1b1b1b1b1b1b1b1b1.D#n.J.N.Val#Sb1b1b1b1b1b1b1b1b1b1b1b1b1b1b1b1b1b1b1b1b1b1",
"b1b1b1b1b1b1b1b1b1b1b1b1b1b1b1b1b1b1b1b1b1b1.X.J#n#n.N.Val.5.0b1b1b1b1b1b1b1b1b1b1b1b1b1b1b1b1b1b1b1b1b1",
"b1b1b1b1b1b1b1b1b1b1b1b1b1b1b1b1b1b1b1b1b1.J.X.7#n#n.Nar.G.5.P#Eb1b1b1b1b1b1b1b1b1b1b1b1b1b1b1b1b1b1b1b1",
"b1b1b1b1b1b1b1b1b1b1b1b1b1b1b1b1b1b1b1.X.J.8.J.X.7.J#v#Eal.V.V#i.4#ab1b1b1b1b1b1b1b1b1b1b1b1b1b1b1b1b1b1",
"b1b1b1b1b1b1b1b1b1b1b1b1b1b1b1b1b1b1#9.J.J.8.J.7.J#.#.#v.P.V.V#i#Q#M#ob1b1b1b1b1b1b1b1b1b1b1b1b1b1b1b1b1",
"b1b1b1b1b1b1b1b1b1b1b1b1b1b1b1b1b1.J.8.J.7.8.X.7.U.U#.#..Z.G.P#i.4#2#h#Hb1b1b1b1b1b1b1b1b1b1b1b1b1b1b1b1",
"b1b1b1b1b1b1b1b1b1b1b1b1b1b1b1.B.Z.8.8.8.J.8.J#..U#.#..U#..1.H#i#M#2#Oajada#b1b1b1b1b1b1b1b1b1b1b1b1b1b1",
"b1b1b1b1b1b1b1b1b1b1b1b1b1b1#9.Z.Z.8.8.8.J.7#.#..U.U#.#.#x#A#A#i#M#2ac#5ae#4#Tb1b1b1b1b1b1b1b1b1b1b1b1b1",
"b1b1b1b1b1b1b1b1b1b1ao#p#.#..Z.Z.8.8.8.J#.#.#.#.#.#A#A.M.1#A#A#B#d#2ajad#7#1#A.U.Z.Daob1b1b1b1b1b1b1b1b1",
"b1b1b1b1b1b1b1b1b1#2#I#e#x#.#..Z.Z.8.8.U#.#.#.#A.2.U#B.2#x#B#B#B#b#D#5ae#4#I.2.Z.J.8#e#ib1b1b1b1b1b1b1b1",
"b1b1b1b1b1b1b1b1b1#Ead#I#A#.#..Z.Z.8.Z#.#.#x.1#Eb0b0b0b0b0#E#D#D#D#D#G#7#1#0#..J.8#A#O.Vb1b1b1b1b1b1b1b1",
"b1b1b1b1b1b1b1b1b1#2#iae#I#x#.#..Z#.#x#A.2#Eb0b0b0b0b0b0b0b0b0.P#D#F#Y#d#I#A.Z.7#x#O#E.5b1b1b1b1b1b1b1b1",
"b1b1b1b1b1b1b1b1b1#h#M#iae#e#x#..M#A#A#bb0....be..b0b0b0b0b0b0b0b0#f#G#J#f#F#n#x#K#i.G#ib1b1b1b1b1b1b1b1",
"b1b1b1b1b1b1b1b1#k#K#P#M.P#I#x.M#A.1#xb0...a.b.b..b0aAb0b0b0b0b0b0b0#Y#J#J#J#L#L#E.5#i#2apb1b1b1b1b1b1b1",
"b1b1b1b1b1b1b1b1.S#3aj#O#2#A.1#A#B#Ab0.a.e.f.d.b.ablbTbl.ab0b0.#.ob0b0ad#L#3#5#5.5.K#h#3#wb1b1b1b1b1b1b1",
"b1b1b1b1b1b1b1b1#Yae#3ac#P#A#u#u#A.F.#.eax.f.c.#bMbTbKbTbmb0b0.c.fb0b0..#L#5#5#5.4#O#5#4#Ib1b1b1b1b1b1b1",
"b1b1b1b1b1b1b1b1af#7ae#3#5#A#B#Baa...b.gax.d.#aubTbJbKbJbKbnb0b0b0b0b0b0#iajajajacad#4#1.3b1b1b1b1b1b1b1",
"b1b1b1b1b1b1b1ag#1af#7ae#J#b#D#Db0.#az.C.e.a..avbTbKbKbJbT.mb0b0b0b0b0b0b0aj#5#Lae#4#I#e#x.yb1b1b1b1b1b1",
"b1b1b1b1b1b1b1#U#1#1#4#4#F#D#D.V...a.f.f.b..b0b0.ubTbKbJ.vb0b0b0b0.#b0b0b0al#L#L#Y.3#e#x#.#pb1b1b1b1b1b1",
"b1b1b1b1b1b1b1#0#I#I#1#1#F#F#Fb0...b.e.b..b0b0b0b0.cblatb0b0b0b0b0b0b0b0b0b0#J#f#J.U#..Z.8.Jb1b1b1b1b1b1",
"b1b1b1b1b1b1a.#e#e#e.3#I#d#G#Gb0...b.c.#b0b0b0b0b0b0b0b0b0b0b0b0b0b0b0b0b0b0#f#G#d.Z.Z.J.J#n.Db1b1b1b1b1",
"b1b1b1b1b1b1#A#A#e#e#e#D#G#G#Mb0...#.#b0b0b0b0.s.r.r.r.r.r.rayb0b0b0b0b0b0b0#2#F#w.9.7#n#n.J.8b1b1b1b1b1",
"b1b1b1b1b1ag#A#x#x#A#x#G#J#J..b0b0....b0.db0b0bybKbKbKbKbKbKbw.pb0b0b0b0b0b0..#B#b#u#n.J.8.Z.Z#lb1b1b1b1",
"b1b1b1b1b1#.#x#x.2.2#B#J#J#Jb0b0b0b0b0b0b0b0b0bObKbKbKbKbTbTbTbTbq.hb0b0b0b0b0#u#u.1.Z.Z.Z.Z#..Ub1b1b1b1",
"b1b1b1b1b1#..U#.#.#x#Jad#L#5b0b0b0b0b0b0b0b0b0bObKbKbKbRawaAaA.daA.db0b0b0b0b0#u.1.1.M.U#.#x#x#Ab1b1b1b1",
"b1b1b1b1.Z.Z#.#..Z#.#L#L#3anb0b0.mb0b0b0b0b0b0bybKbKbKbR.cb0b0b0b0b0b0.aao.#...0#..M.Z#A#e#e#0#I#Ib1b1b1",
"b1b1b1#l.Z.Z.Z#.#.#J#5#5#5.Fb0b0b0b0b0b0b0b0b0bybKbKbKbR.cb0b0b0b0b0b0...#.a.#.G.Z#p.R.8#I#I#I#1afahb1b1",
"b1b1ao.Z.R.R.Z.Z#B#5#5aj#5..b0b0b0b0b0.s.ab0b0bybJbJbKbw.cb0b0b0b0b0...#.a.b.a.a.8.8.8.Z#I#4#4#7#7#7aob1",
"b1b1.8.8.Z.Z.Z.8aj#5aj#5#3..b0b0b0b0b0.#b0b0b0bybTbJbKbw.cb0b0.#b0b0...abd.c.baq.Q.R#.#A#0aead#L#L#3#5b1",
"b1.R.8.8.8.8.8ajaj#5#5#Ladb0b0b0b0b0b0b0b0b0b0bybJbJbKbw.cb0b0b0b0b0.#.b.d.e.b.##v#e#I#1af#4#Kacac#O#O#c",
".C.V.V.P.H.P#K#Z#Z#L#L#J#Gb0b0b0b0.#b0b0b0b0b0bObKbKbJbwazaRb.a3a4aPaNaKa6.f.b.##0#1#4#4#4#4#1#n#n#n#n#n",
"b1#z#h#h#h#O#O#L#J#J#f#f#Fb0b0b0b0b0b0b0b0b0b0bObKbKbKbGaXbbaLbeb0...baEaFax.b.#afafaf#4#4#7.Z.Z.Z.Z.Z.R",
"b1b1#3ad#L#6#6#6#f#f#G#d#F..b0b0b0b0b0b0b0b0bebObKbKbVa8a3a3b.b0...aaKa5aFay.b.#af#4#4#6#6.2#.#.#.#.#.b1",
"b1b1aoafaf#1#I#I#I#d#d#F#b..b0b0b0b0b0aQaTa4a9bObKbKa8a3a3a3a3aTaOa0aYa5.g.f.b.##4#7#6ae#B#A#A#x#A#xaob1",
"b1b1b1a.#I#e#A#A#x#D#b#b#b#jb0b0b0b0b.aTaQb0b0bybKbXa3a3a3a3a3a3aZa0a5.h.g.f.a#j#6aeadad#e#0#e#e#ea.b1b1",
"b1b1b1b1#x#x.2.U.Z.Z#B#u#B.Pb0b0a1a4aRb0b0b0b0bobW..a4aTa3aTa3a3azaY.g.h.g.e.#.P#Lad#3#1#I#I#I#I#Ib1b1b1",
"b1b1b1b1b1.R.Z.8.8.J.1.9.M.Ob0b0a8a3a9aLaLa8b.aTa3aTb.aTa3a3aPa0.eax.i.hax.d.##5#5#5aj#4#4#1#1#1b1b1b1b1",
"b1b1b1b1b1.J.J#n#n#n.R#..M.Mb0b0b0a1b.a3a4a4a4a4a4a4aQaTa3aPa0.fax.h.j.hay.c..ajajajad#7#4af#4#4b1b1b1b1",
"b1b1b1b1b1.B#n#n.J.8.8.Z#p.8..b0b0b0b0b0b0b0b0.CbSbZbWbVaIaZ.c.f.g.i.i.g.t.b..ajac#Oadae#6#6#7a#b1b1b1b1",
"b1b1b1b1b1b1.8.8.Z.Z#..Z.Z.J#sb0b0b0b0b0b0b0b0bObKbKbKbGazar.e.C.i.j.iax.d.a#iacacac#3ad#Laeaeb1b1b1b1b1",
"b1b1b1b1b1b1#9.Z#.#.#x#x.8#.#xb0b0b0b0b0b0b0b0bObKbKbKbG.f.e.Cav.j.k.hay.c.##O#O#Oacaj#5#3ad#tb1b1b1b1b1",
"b1b1b1b1b1b1b1#x#A#e#I#I#I#I#1b0b0b0b0b0b0b0b0bObKbRbGbQaw.i.rau.j.iay.c.a..#P#P#P#Oacaj#5#5b1b1b1b1b1b1",
"b1b1b1b1b1b1b1.9#e#I#1#4#4#4#4.Hb0b0b0b0b0b0b0bybRbGbDbt.j.i.j.k.j.h.t.b.#.A#P#P#2#O#Oacaj.Yb1b1b1b1b1b1",
"b1b1b1b1b1b1b1.y#Iaf#7adadaf#4#4b0b0b0.nb0....bybDbQbtbA.k.j.k.j.hay.c.#..#P#P#2#P#h#O#Oacapb1b1b1b1b1b1",
"b1b1b1b1b1b1b1b1#1#7#Laj#K#4#7#7#8b0b0b0...#.a.pbQbBbAbs.m.j.j.hax.e.a...H#2#2#2#2#h#h#P#Ob1b1b1b1b1b1b1",
"b1b1b1b1b1b1b1b1#Y#3#K#O.K#7#6ae#6..b0...#.a.c.ebfbybAbr.m.i.gay.e.b....#P#2#8#8#2#2#h#P#Wb1b1b1b1b1b1b1",
"b1b1b1b1b1b1b1b1.S#K#O#M#iaeadad#3#3b0.....a.c.faw.g.rbkauax.f.d.b.#b0#2#2#8#8#8.K#2#2#hamb1b1b1b1b1b1b1",
"b1b1b1b1b1b1b1b1#R#2.4.Palad#3#5ajacajb0...#.aax.e.e.e.e.d.c.a.#..b0#2#8#M#8#8#P#M#2#2#2apb1b1b1b1b1b1b1",
"b1b1b1b1b1b1b1b1b1.K.P.5#K.8.Z#L#Oac#O#Pb0...#.#.a.b.b.a.a.#....b0#8#8#8#Q#Kae#5#O#M#2#2b1b1b1b1b1b1b1b1",
"b1b1b1b1b1b1b1b1b1#i.V#K#v.Z#A#1#7#O#O#P#O.Gb0b0..........b0b0.A#2#8#8#Q#B.3#4#Laj#O#M#2b1b1b1b1b1b1b1b1",
"b1b1b1b1b1b1b1b1b1.V#O.Z.J#x.3af#6ad#O#P#P#P#2alb0b0b0b0b0.A#8#8#8#8#g#x#e#Iaf#7#Laj#O.Kb1b1b1b1b1b1b1b1",
"b1b1b1b1b1b1b1b1b1.V.U.7#.#e#1#7ae#3#5#2#P#2#2#2#2#2#Q#2#2#M#8#8#8#2.U#x#A#e#1af#6#3ac#2b1b1b1b1b1b1b1b1",
"b1b1b1b1b1b1b1b1b1b1b1b1a.#I#4#6ad#5#Kac#O#2#8#8#8#8#8#8#M#8#8#Q.R.Z#.#.#x#e#0#1a#b1b1b1b1b1b1b1b1b1b1b1",
"b1b1b1b1b1b1b1b1b1b1b1b1b1b1ahad#3#5aj#O#O#O#8#8#8#8#8#M#M#8#M#n.8.Z.Z.U.2#xa.b1b1b1b1b1b1b1b1b1b1b1b1b1",
"b1b1b1b1b1b1b1b1b1b1b1b1b1b1b1#m#5ajajac#O#P#h#8#8#M#8#M#8#h.I.7.J.Z.Z#.#.#lb1b1b1b1b1b1b1b1b1b1b1b1b1b1",
"b1b1b1b1b1b1b1b1b1b1b1b1b1b1b1b1b1#Zac#O#O#O#P#P#8#8#8#M#i.Q.Q#n.J.8.Z.Zb1b1b1b1b1b1b1b1b1b1b1b1b1b1b1b1",
"b1b1b1b1b1b1b1b1b1b1b1b1b1b1b1b1b1b1.L#O#O#O#h#h#2#8#8#Q#p.7#n#n.X.8#lb1b1b1b1b1b1b1b1b1b1b1b1b1b1b1b1b1",
"b1b1b1b1b1b1b1b1b1b1b1b1b1b1b1b1b1b1b1#c#O#h#h#2#h#2#i.M.8.J#n#n.X.Rb1b1b1b1b1b1b1b1b1b1b1b1b1b1b1b1b1b1",
"b1b1b1b1b1b1b1b1b1b1b1b1b1b1b1b1b1b1b1b1b1#h#P#2#2#2.O.8.8.J#n#nb1b1b1b1b1b1b1b1b1b1b1b1b1b1b1b1b1b1b1b1",
"b1b1b1b1b1b1b1b1b1b1b1b1b1b1b1b1b1b1b1b1b1b1#z#2#2#2.O.8.8.J.Xb1b1b1b1b1b1b1b1b1b1b1b1b1b1b1b1b1b1b1b1b1",
"b1b1b1b1b1b1b1b1b1b1b1b1b1b1b1b1b1b1b1b1b1b1b1#r#2#2.O.Z.8#9b1b1b1b1b1b1b1b1b1b1b1b1b1b1b1b1b1b1b1b1b1b1",
"b1b1b1b1b1b1b1b1b1b1b1b1b1b1b1b1b1b1b1b1b1b1b1b1#h#2.O.Z.8b1b1b1b1b1b1b1b1b1b1b1b1b1b1b1b1b1b1b1b1b1b1b1",
"b1b1b1b1b1b1b1b1b1b1b1b1b1b1b1b1b1b1b1b1b1b1b1b1b1#2.O.Rb1b1b1b1b1b1b1b1b1b1b1b1b1b1b1b1b1b1b1b1b1b1b1b1"
};
