/* XPM */
static char * star_xpm[] = {
"50 50 4 1",
" 	c #000000000000",
".	c #FFFFFFFFFFFF",
"X	c #FFFFFFFF0000",
"o	c #FFFF00000000",
"                                                  ",
"                                                  ",
"                                                  ",
"                                                  ",
"       .                                          ",
"                                                  ",
"                                           .      ",
"                                                  ",
"                 X    X                           ",
"                      X                           ",
"                       XoX                        ",
"                                                  ",
"                        Xo       X                ",
"                  .  ooX o     X X                ",
"                  X  XXXXXXXX                     ",
"                   XXoXooXoXXXXX                  ",
"                X oXXXXoooooXXXX                  ",
"                 XXXoXooXooXXXXXo    X         .  ",
"           X    XXXXXoXXXoXooXXXoo oX             ",
"               oXXXXXoXooXXoXooooXXX              ",
"            oX XXooooooXooXXoXXXXXXo  X           ",
"              XXXoooXXXXooooooXoXoooo o X         ",
"              XXoXoXXXXXoXXoXoXooXoX              ",
"             oooooXoXXoXXooXXooooXXX              ",
"              oXXXooXXXXoXXXXXXXooXX              ",
"            o XXoXoXoXXXXooXXXoooXoX              ",
"              XoooXoXXoXooXoXoXXXXXX              ",
"              XoXXoXooXXXooXXXoXooXX              ",
"              XoXXXXXXXXooXXXooooooX              ",
"             X XXoooXXXoooXXXXXoooo X             ",
"               XXooooXXoXooXXoXXoXX  oX           ",
"                XXXXoooooXoXXXXoXo                ",
"                XoXXXXoooXXXXXXXX X               ",
"              oo  XoXoXXXXoXXXXXoo  X             ",
"             X  X  XXXXXoXoXXXX   X               ",
"             X  o   oXoXXXoXX X                   ",
"            X           X                         ",
"                       X                          ",
"                                                  ",
"                                                  ",
"                                                  ",
"                                                  ",
"    .                                             ",
"                                              .   ",
"        .                                         ",
"                                                  ",
"                                                  ",
"                                                  ",
"                                                  ",
"                                                  "};
