/* XPM */
static char *unknown_xpm[] = {
/* width height num_colors chars_per_pixel */
"    50    50        2            1",
/* colors */
". c #000000",
"# c #808080",
/* pixels */
"..................................................",
".################################################.",
".################################################.",
".################################################.",
".################################################.",
".################################################.",
".################################################.",
".################################################.",
".################################################.",
".################################################.",
".################################################.",
".################################################.",
".################################################.",
".################################################.",
".################################################.",
".################################################.",
".################################################.",
".################################################.",
".################################################.",
".################################################.",
".################################################.",
".################################################.",
".################################################.",
".################################################.",
".################################################.",
".################################################.",
".################################################.",
".################################################.",
".################################################.",
".################################################.",
".################################################.",
".################################################.",
".################################################.",
".################################################.",
".################################################.",
".################################################.",
".################################################.",
".################################################.",
".################################################.",
".################################################.",
".################################################.",
".################################################.",
".################################################.",
".################################################.",
".################################################.",
".################################################.",
".################################################.",
".################################################.",
".################################################.",
".................................................."};
